<svg width="30" height="35" viewBox="0 0 30 35" fill="none" xmlns="http://www.w3.org/2000/svg">
<path d="M10.8053 15.943C9.33198 16.7899 8.51906 18.4453 8.7497 20.129C8.98034 21.8126 10.2085 23.1885 11.8553 23.608" stroke="white" stroke-width="2.52" stroke-miterlimit="10" stroke-linecap="round"/>
<path d="M3.23291 17.1091C4.62283 18.6677 6.61193 19.5589 8.70026 19.5588" stroke="white" stroke-width="2.52" stroke-miterlimit="10" stroke-linecap="round"/>
<path d="M17.1007 5.90025C17.1058 3.78452 15.5334 1.99663 13.4344 1.73148C11.3353 1.46633 9.36774 2.80704 8.84662 4.8576C8.79727 4.85655 8.75002 4.85025 8.70067 4.85025C5.80053 4.84705 3.1703 6.5514 1.98834 9.19975C0.806377 11.8481 1.29422 14.9441 3.23332 17.1006C2.15301 17.8109 1.4624 18.9813 1.36298 20.2703C1.26355 21.5594 1.76651 22.8218 2.72512 23.6894C1.87635 26.4504 2.72357 29.4527 4.89052 31.3628C7.05746 33.2728 10.1423 33.7365 12.775 32.5479C15.4078 31.3594 17.1002 28.7389 17.1007 25.8503H22.3507L24.016 27.5156" stroke="white" stroke-width="2.52" stroke-miterlimit="10" stroke-linecap="round"/>
<path d="M24.0145 7.39075L21.3055 10.0997H17.1055V13.2497" stroke="white" stroke-width="2.52" stroke-miterlimit="10" stroke-linecap="square"/>
<path d="M24.4452 17.4502L17.0952 17.4502V21.6502" stroke="white" stroke-width="2.52" stroke-miterlimit="10" stroke-linecap="square"/>
<path d="M25.5004 31.1003C26.6602 31.1003 27.6004 30.1601 27.6004 29.0003C27.6004 27.8405 26.6602 26.9003 25.5004 26.9003C24.3406 26.9003 23.4004 27.8405 23.4004 29.0003C23.4004 30.1601 24.3406 31.1003 25.5004 31.1003Z" stroke="white" stroke-width="2.52" stroke-miterlimit="10" stroke-linecap="square"/>
<path d="M26.5502 19.5502C27.71 19.5502 28.6502 18.61 28.6502 17.4502C28.6502 16.2904 27.71 15.3502 26.5502 15.3502C25.3904 15.3502 24.4502 16.2904 24.4502 17.4502C24.4502 18.61 25.3904 19.5502 26.5502 19.5502Z" stroke="white" stroke-width="2.52" stroke-miterlimit="10" stroke-linecap="square"/>
<path d="M25.5004 8.00029C26.6602 8.00029 27.6004 7.06009 27.6004 5.90029C27.6004 4.74049 26.6602 3.80029 25.5004 3.80029C24.3406 3.80029 23.4004 4.74049 23.4004 5.90029C23.4004 7.06009 24.3406 8.00029 25.5004 8.00029Z" stroke="white" stroke-width="2.52" stroke-miterlimit="10" stroke-linecap="square"/>
</svg>
