<svg width="30" height="35" viewBox="0 0 30 35" fill="none" xmlns="http://www.w3.org/2000/svg">
<path d="M10.8053 15.9429C9.33198 16.7898 8.51906 18.4452 8.7497 20.1289C8.98034 21.8125 10.2085 23.1884 11.8553 23.6079" stroke="#191918" stroke-width="2.52" stroke-miterlimit="10" stroke-linecap="round"/>
<path d="M3.23291 17.1089C4.62283 18.6675 6.61193 19.5587 8.70026 19.5585" stroke="#191918" stroke-width="2.52" stroke-miterlimit="10" stroke-linecap="round"/>
<path d="M17.1007 5.90013C17.1058 3.7844 15.5334 1.99651 13.4344 1.73136C11.3353 1.4662 9.36774 2.80692 8.84662 4.85748C8.79727 4.85643 8.75002 4.85013 8.70067 4.85013C5.80053 4.84692 3.1703 6.55128 1.98834 9.19963C0.806377 11.848 1.29422 14.9439 3.23332 17.1005C2.15301 17.8107 1.4624 18.9811 1.36298 20.2702C1.26355 21.5592 1.76651 22.8217 2.72512 23.6892C1.87635 26.4503 2.72357 29.4526 4.89052 31.3626C7.05746 33.2727 10.1423 33.7364 12.775 32.5478C15.4078 31.3592 17.1002 28.7387 17.1007 25.8501H22.3507L24.016 27.5154" stroke="#191918" stroke-width="2.52" stroke-miterlimit="10" stroke-linecap="round"/>
<path d="M24.0145 7.39063L21.3055 10.0996H17.1055V13.2496" stroke="#191918" stroke-width="2.52" stroke-miterlimit="10" stroke-linecap="square"/>
<path d="M24.4452 17.4502L17.0952 17.4502V21.6502" stroke="#191918" stroke-width="2.52" stroke-miterlimit="10" stroke-linecap="square"/>
<path d="M25.5004 31.1001C26.6602 31.1001 27.6004 30.1599 27.6004 29.0001C27.6004 27.8403 26.6602 26.9001 25.5004 26.9001C24.3406 26.9001 23.4004 27.8403 23.4004 29.0001C23.4004 30.1599 24.3406 31.1001 25.5004 31.1001Z" stroke="#191918" stroke-width="2.52" stroke-miterlimit="10" stroke-linecap="square"/>
<path d="M26.5502 19.5501C27.71 19.5501 28.6502 18.6099 28.6502 17.4501C28.6502 16.2903 27.71 15.3501 26.5502 15.3501C25.3904 15.3501 24.4502 16.2903 24.4502 17.4501C24.4502 18.6099 25.3904 19.5501 26.5502 19.5501Z" stroke="#191918" stroke-width="2.52" stroke-miterlimit="10" stroke-linecap="square"/>
<path d="M25.5004 8.00005C26.6602 8.00005 27.6004 7.05985 27.6004 5.90005C27.6004 4.74025 26.6602 3.80005 25.5004 3.80005C24.3406 3.80005 23.4004 4.74025 23.4004 5.90005C23.4004 7.05985 24.3406 8.00005 25.5004 8.00005Z" stroke="#191918" stroke-width="2.52" stroke-miterlimit="10" stroke-linecap="square"/>
</svg>
